<mxfile>
    <diagram id="blAD-rnfMB43jVluzgxL" name="Page-1">
        <mxGraphModel dx="309" dy="790" grid="1" gridSize="10" guides="1" tooltips="1" connect="1" arrows="1" fold="1" page="1" pageScale="1" pageWidth="1169" pageHeight="1654" math="0" shadow="0">
            <root>
                <mxCell id="0"/>
                <mxCell id="1" parent="0"/>
                <mxCell id="113" value="" style="group" parent="1" vertex="1" connectable="0">
                    <mxGeometry x="15" y="680" width="1140" height="930" as="geometry"/>
                </mxCell>
                <mxCell id="30" value="Process" style="shape=umlFrame;whiteSpace=wrap;html=1;width=120;height=30;boundedLbl=1;verticalAlign=middle;align=left;spacingLeft=5;" parent="113" vertex="1">
                    <mxGeometry width="1140" height="930" as="geometry"/>
                </mxCell>
                <mxCell id="31" value="Administrator Repository" style="rounded=0;whiteSpace=wrap;html=1;fillColor=#dae8fc;gradientColor=#7ea6e0;strokeColor=#6c8ebf;" parent="113" vertex="1">
                    <mxGeometry x="352.32853513971213" y="184.19417475728156" width="144.7925486875529" height="54.1747572815534" as="geometry"/>
                </mxCell>
                <mxCell id="32" value="" style="endArrow=classic;html=1;entryX=0;entryY=0.5;entryDx=0;entryDy=0;" parent="113" target="31" edge="1">
                    <mxGeometry width="50" height="50" relative="1" as="geometry">
                        <mxPoint x="274.14055884843356" y="211.28155339805826" as="sourcePoint"/>
                        <mxPoint x="503.87806943268413" y="366.5825242718447" as="targetPoint"/>
                    </mxGeometry>
                </mxCell>
                <mxCell id="34" value="Home Page" style="rounded=0;whiteSpace=wrap;html=1;fillColor=#dae8fc;gradientColor=#7ea6e0;strokeColor=#6c8ebf;" parent="113" vertex="1">
                    <mxGeometry x="590.7535986452159" y="32.504854368932044" width="57.91701947502116" height="343.1067961165049" as="geometry"/>
                </mxCell>
                <mxCell id="35" value="" style="endArrow=classic;html=1;exitX=1;exitY=0.5;exitDx=0;exitDy=0;entryX=0.012;entryY=0.529;entryDx=0;entryDy=0;entryPerimeter=0;" parent="113" source="31" target="34" edge="1">
                    <mxGeometry width="50" height="50" relative="1" as="geometry">
                        <mxPoint x="513.5309060118543" y="258.2330097087379" as="sourcePoint"/>
                        <mxPoint x="589.7883149872989" y="232.95145631067962" as="targetPoint"/>
                    </mxGeometry>
                </mxCell>
                <mxCell id="36" value="" style="endArrow=classic;html=1;entryX=0;entryY=0.5;entryDx=0;entryDy=0;" parent="113" target="52" edge="1">
                    <mxGeometry width="50" height="50" relative="1" as="geometry">
                        <mxPoint x="649.6359017781541" y="59.59223300970874" as="sourcePoint"/>
                        <mxPoint x="765.4699407281964" y="37.92233009708738" as="targetPoint"/>
                    </mxGeometry>
                </mxCell>
                <mxCell id="37" value="" style="endArrow=classic;html=1;entryX=0;entryY=0.5;entryDx=0;entryDy=0;" parent="113" target="60" edge="1">
                    <mxGeometry width="50" height="50" relative="1" as="geometry">
                        <mxPoint x="647.70533446232" y="195.02912621359224" as="sourcePoint"/>
                        <mxPoint x="765.4699407281964" y="176.06796116504856" as="targetPoint"/>
                    </mxGeometry>
                </mxCell>
                <mxCell id="38" value="" style="group" parent="113" vertex="1" connectable="0">
                    <mxGeometry x="39.5766299745978" y="143.5631067961165" width="231.66807790008465" height="144.46601941747574" as="geometry"/>
                </mxCell>
                <mxCell id="39" value="" style="endArrow=none;dashed=1;html=1;dashPattern=1 3;strokeWidth=2;" parent="38" edge="1">
                    <mxGeometry width="50" height="50" relative="1" as="geometry">
                        <mxPoint y="144.46601941747574" as="sourcePoint"/>
                        <mxPoint x="231.66807790008465" as="targetPoint"/>
                        <Array as="points">
                            <mxPoint x="231.66807790008465" y="144.46601941747574"/>
                        </Array>
                    </mxGeometry>
                </mxCell>
                <mxCell id="40" value="" style="endArrow=none;dashed=1;html=1;dashPattern=1 3;strokeWidth=2;" parent="38" edge="1">
                    <mxGeometry width="50" height="50" relative="1" as="geometry">
                        <mxPoint y="144.46601941747574" as="sourcePoint"/>
                        <mxPoint x="231.66807790008465" as="targetPoint"/>
                        <Array as="points">
                            <mxPoint/>
                        </Array>
                    </mxGeometry>
                </mxCell>
                <mxCell id="41" value="" style="group" parent="38" vertex="1" connectable="0">
                    <mxGeometry x="28.95850973751058" y="24.37864077669903" width="173.75105842506352" height="81.2621359223301" as="geometry"/>
                </mxCell>
                <mxCell id="42" value="" style="rounded=0;whiteSpace=wrap;html=1;gradientColor=#b3b3b3;fillColor=#f5f5f5;strokeColor=#666666;" parent="41" vertex="1">
                    <mxGeometry width="173.75105842506352" height="81.2621359223301" as="geometry"/>
                </mxCell>
                <mxCell id="43" value="Username" style="rounded=1;whiteSpace=wrap;html=1;" parent="41" vertex="1">
                    <mxGeometry x="38.61134631668078" y="27.0873786407767" width="96.52836579170194" height="18.058252427184467" as="geometry"/>
                </mxCell>
                <mxCell id="44" value="Password" style="rounded=1;whiteSpace=wrap;html=1;" parent="41" vertex="1">
                    <mxGeometry x="38.61134631668078" y="54.1747572815534" width="96.52836579170194" height="18.058252427184467" as="geometry"/>
                </mxCell>
                <mxCell id="45" value="Administrator" style="text;html=1;align=center;verticalAlign=middle;resizable=0;points=[];autosize=1;strokeColor=none;" parent="41" vertex="1">
                    <mxGeometry x="43.43776460626588" y="9.029126213592233" width="90" height="20" as="geometry"/>
                </mxCell>
                <mxCell id="46" value="" style="endArrow=none;dashed=1;html=1;" parent="113" edge="1">
                    <mxGeometry width="50" height="50" relative="1" as="geometry">
                        <mxPoint x="742.3031329381879" y="393.21844660194176" as="sourcePoint"/>
                        <mxPoint x="742.3031329381879" y="14.898058252427186" as="targetPoint"/>
                    </mxGeometry>
                </mxCell>
                <mxCell id="47" value="" style="endArrow=none;dashed=1;html=1;" parent="113" edge="1">
                    <mxGeometry width="50" height="50" relative="1" as="geometry">
                        <mxPoint x="1090.7705334462319" y="395.4757281553398" as="sourcePoint"/>
                        <mxPoint x="1090.7705334462319" y="13.54368932038835" as="targetPoint"/>
                    </mxGeometry>
                </mxCell>
                <mxCell id="48" value="" style="endArrow=none;dashed=1;html=1;" parent="113" edge="1">
                    <mxGeometry width="50" height="50" relative="1" as="geometry">
                        <mxPoint x="743.268416596105" y="397.2815533980583" as="sourcePoint"/>
                        <mxPoint x="1090.7705334462319" y="395.4757281553398" as="targetPoint"/>
                    </mxGeometry>
                </mxCell>
                <mxCell id="49" value="" style="endArrow=none;dashed=1;html=1;" parent="113" edge="1">
                    <mxGeometry width="50" height="50" relative="1" as="geometry">
                        <mxPoint x="743.268416596105" y="13.54368932038835" as="sourcePoint"/>
                        <mxPoint x="1090.7705334462319" y="13.54368932038835" as="targetPoint"/>
                    </mxGeometry>
                </mxCell>
                <mxCell id="50" value="Database&lt;br&gt;" style="shape=datastore;whiteSpace=wrap;html=1;fillColor=#808080;strokeColor=#001DBC;fontColor=#ffffff;" parent="113" vertex="1">
                    <mxGeometry x="995.2074513124471" y="163.4271844660194" width="77.22269263336156" height="63.20388349514563" as="geometry"/>
                </mxCell>
                <mxCell id="51" value="" style="group" parent="113" vertex="1" connectable="0">
                    <mxGeometry x="781.8797629127857" y="32.504854368932044" width="135.13971210838272" height="54.1747572815534" as="geometry"/>
                </mxCell>
                <mxCell id="52" value="" style="rounded=0;whiteSpace=wrap;html=1;fillColor=#cce5ff;strokeColor=#36393d;" parent="51" vertex="1">
                    <mxGeometry width="135.13971210838272" height="54.1747572815534" as="geometry"/>
                </mxCell>
                <mxCell id="53" value="Topic/Annexed" style="rounded=1;whiteSpace=wrap;html=1;" parent="51" vertex="1">
                    <mxGeometry x="28.95850973751058" y="27.0873786407767" width="77.22269263336156" height="18.058252427184463" as="geometry"/>
                </mxCell>
                <mxCell id="54" value="&lt;font color=&quot;#000000&quot;&gt;Add/Delete&lt;/font&gt;" style="text;html=1;align=center;verticalAlign=middle;resizable=0;points=[];autosize=1;strokeColor=none;" parent="51" vertex="1">
                    <mxGeometry x="32.81964436917866" y="9.932038834951456" width="72" height="18" as="geometry"/>
                </mxCell>
                <mxCell id="55" value="" style="group" parent="113" vertex="1" connectable="0">
                    <mxGeometry x="781.8797629127857" y="297.9611650485437" width="135.13971210838272" height="54.1747572815534" as="geometry"/>
                </mxCell>
                <mxCell id="56" value="" style="rounded=0;whiteSpace=wrap;html=1;fillColor=#cce5ff;strokeColor=#36393d;" parent="55" vertex="1">
                    <mxGeometry width="135.13971210838272" height="54.1747572815534" as="geometry"/>
                </mxCell>
                <mxCell id="57" value="Topic" style="rounded=1;whiteSpace=wrap;html=1;" parent="55" vertex="1">
                    <mxGeometry x="28.95850973751058" y="27.0873786407767" width="77.22269263336156" height="18.058252427184463" as="geometry"/>
                </mxCell>
                <mxCell id="58" value="&lt;font color=&quot;#000000&quot;&gt;Similar Topic&lt;/font&gt;" style="text;html=1;align=center;verticalAlign=middle;resizable=0;points=[];autosize=1;strokeColor=none;" parent="55" vertex="1">
                    <mxGeometry x="28.95850973751058" y="9.932038834951456" width="81" height="18" as="geometry"/>
                </mxCell>
                <mxCell id="59" value="" style="group" parent="113" vertex="1" connectable="0">
                    <mxGeometry x="778.0186282811177" y="167.94174757281553" width="135.13971210838272" height="54.1747572815534" as="geometry"/>
                </mxCell>
                <mxCell id="60" value="" style="rounded=0;whiteSpace=wrap;html=1;fillColor=#cce5ff;strokeColor=#36393d;" parent="59" vertex="1">
                    <mxGeometry width="135.13971210838272" height="54.1747572815534" as="geometry"/>
                </mxCell>
                <mxCell id="61" value="Topic" style="rounded=1;whiteSpace=wrap;html=1;" parent="59" vertex="1">
                    <mxGeometry x="28.95850973751058" y="27.0873786407767" width="77.22269263336156" height="18.058252427184463" as="geometry"/>
                </mxCell>
                <mxCell id="62" value="&lt;font color=&quot;#000000&quot;&gt;Selected Topic&lt;/font&gt;" style="text;html=1;align=center;verticalAlign=middle;resizable=0;points=[];autosize=1;strokeColor=none;" parent="59" vertex="1">
                    <mxGeometry x="24.132091447925486" y="9.932038834951456" width="90" height="18" as="geometry"/>
                </mxCell>
                <mxCell id="63" value="" style="endArrow=none;html=1;exitX=1;exitY=0.5;exitDx=0;exitDy=0;entryX=0;entryY=0.7;entryDx=0;entryDy=0;" parent="113" source="56" target="50" edge="1">
                    <mxGeometry width="50" height="50" relative="1" as="geometry">
                        <mxPoint x="162.16765453005925" y="310.6019417475728" as="sourcePoint"/>
                        <mxPoint x="210.43183742591026" y="265.45631067961165" as="targetPoint"/>
                    </mxGeometry>
                </mxCell>
                <mxCell id="33" style="edgeStyle=orthogonalEdgeStyle;rounded=0;orthogonalLoop=1;jettySize=auto;html=1;entryX=0;entryY=0.5;entryDx=0;entryDy=0;" parent="113" source="34" target="56" edge="1">
                    <mxGeometry relative="1" as="geometry">
                        <Array as="points">
                            <mxPoint x="673.7679932260796" y="325.0485436893204"/>
                            <mxPoint x="673.7679932260796" y="325.0485436893204"/>
                        </Array>
                    </mxGeometry>
                </mxCell>
                <mxCell id="64" value="" style="endArrow=none;html=1;exitX=1;exitY=0.5;exitDx=0;exitDy=0;entryX=0;entryY=0.5;entryDx=0;entryDy=0;" parent="113" source="52" target="50" edge="1">
                    <mxGeometry width="50" height="50" relative="1" as="geometry">
                        <mxPoint x="162.16765453005925" y="148.07766990291262" as="sourcePoint"/>
                        <mxPoint x="196.91786621507197" y="208.5728155339806" as="targetPoint"/>
                    </mxGeometry>
                </mxCell>
                <mxCell id="65" value="" style="endArrow=none;html=1;exitX=1;exitY=0.5;exitDx=0;exitDy=0;entryX=0;entryY=0.5;entryDx=0;entryDy=0;" parent="113" source="60" target="50" edge="1">
                    <mxGeometry width="50" height="50" relative="1" as="geometry">
                        <mxPoint x="153.4801016088061" y="229.33980582524273" as="sourcePoint"/>
                        <mxPoint x="201.74428450465706" y="184.19417475728156" as="targetPoint"/>
                    </mxGeometry>
                </mxCell>
                <mxCell id="67" value="User Repository" style="rounded=0;whiteSpace=wrap;html=1;fillColor=#dae8fc;gradientColor=#7ea6e0;strokeColor=#6c8ebf;" parent="113" vertex="1">
                    <mxGeometry x="367.77307366638445" y="620.3009708737865" width="144.7925486875529" height="54.1747572815534" as="geometry"/>
                </mxCell>
                <mxCell id="68" value="" style="group" parent="113" vertex="1" connectable="0">
                    <mxGeometry x="82.04911092294665" y="593.2135922330098" width="173.75105842506352" height="81.2621359223301" as="geometry"/>
                </mxCell>
                <mxCell id="69" value="" style="rounded=0;whiteSpace=wrap;html=1;fillColor=#f5f5f5;gradientColor=#b3b3b3;strokeColor=#666666;" parent="68" vertex="1">
                    <mxGeometry width="173.75105842506352" height="81.2621359223301" as="geometry"/>
                </mxCell>
                <mxCell id="70" value="&lt;pre class=&quot;tw-data-text tw-text-large XcVN5d tw-ta&quot; id=&quot;tw-target-text&quot; dir=&quot;ltr&quot; style=&quot;font-family: inherit ; line-height: 36px ; border: none ; padding: 2px 0.14em 2px 0px ; position: relative ; margin-top: -2px ; margin-bottom: -2px ; resize: none ; overflow: hidden ; width: 270px ; overflow-wrap: break-word&quot;&gt;&lt;span class=&quot;Y2IQFc&quot; lang=&quot;en&quot;&gt;&lt;font style=&quot;font-size: 12px&quot; color=&quot;#000000&quot;&gt;     Username&lt;/font&gt;&lt;/span&gt;&lt;/pre&gt;" style="rounded=1;whiteSpace=wrap;html=1;align=left;" parent="68" vertex="1">
                    <mxGeometry x="38.61134631668078" y="27.0873786407767" width="96.52836579170194" height="18.058252427184467" as="geometry"/>
                </mxCell>
                <mxCell id="71" value="Password" style="rounded=1;whiteSpace=wrap;html=1;" parent="68" vertex="1">
                    <mxGeometry x="38.61134631668078" y="54.1747572815534" width="96.52836579170194" height="18.058252427184467" as="geometry"/>
                </mxCell>
                <mxCell id="72" value="User" style="text;html=1;align=center;verticalAlign=middle;resizable=0;points=[];autosize=1;strokeColor=none;" parent="68" vertex="1">
                    <mxGeometry x="67.56985605419136" y="9.029126213592233" width="40" height="20" as="geometry"/>
                </mxCell>
                <mxCell id="77" value="Home Page" style="rounded=0;whiteSpace=wrap;html=1;fillColor=#dae8fc;gradientColor=#7ea6e0;strokeColor=#6c8ebf;" parent="113" vertex="1">
                    <mxGeometry x="589.7883149872989" y="476.73786407766994" width="57.91701947502116" height="343.1067961165049" as="geometry"/>
                </mxCell>
                <mxCell id="66" style="edgeStyle=orthogonalEdgeStyle;rounded=0;orthogonalLoop=1;jettySize=auto;html=1;" parent="113" source="67" target="77" edge="1">
                    <mxGeometry relative="1" as="geometry"/>
                </mxCell>
                <mxCell id="78" value="" style="group" parent="113" vertex="1" connectable="0">
                    <mxGeometry x="792.4978831498729" y="492.99029126213594" width="135.13971210838272" height="54.1747572815534" as="geometry"/>
                </mxCell>
                <mxCell id="79" value="" style="rounded=0;whiteSpace=wrap;html=1;fillColor=#cce5ff;strokeColor=#36393d;" parent="78" vertex="1">
                    <mxGeometry width="135.13971210838272" height="54.1747572815534" as="geometry"/>
                </mxCell>
                <mxCell id="80" value="Topic" style="rounded=1;whiteSpace=wrap;html=1;" parent="78" vertex="1">
                    <mxGeometry x="28.95850973751058" y="27.0873786407767" width="77.22269263336156" height="18.058252427184463" as="geometry"/>
                </mxCell>
                <mxCell id="81" value="&lt;font color=&quot;#000000&quot;&gt;search&lt;/font&gt;" style="text;html=1;align=center;verticalAlign=middle;resizable=0;points=[];autosize=1;strokeColor=none;" parent="78" vertex="1">
                    <mxGeometry x="41.50719729043183" y="9.932038834951456" width="54" height="18" as="geometry"/>
                </mxCell>
                <mxCell id="73" style="edgeStyle=orthogonalEdgeStyle;rounded=0;orthogonalLoop=1;jettySize=auto;html=1;entryX=0;entryY=0.5;entryDx=0;entryDy=0;" parent="113" source="77" target="79" edge="1">
                    <mxGeometry relative="1" as="geometry">
                        <Array as="points">
                            <mxPoint x="681.4902624894157" y="520.0776699029127"/>
                            <mxPoint x="681.4902624894157" y="520.0776699029127"/>
                        </Array>
                    </mxGeometry>
                </mxCell>
                <mxCell id="82" value="" style="group" parent="113" vertex="1" connectable="0">
                    <mxGeometry x="792.4978831498729" y="582.3786407766991" width="135.13971210838272" height="54.1747572815534" as="geometry"/>
                </mxCell>
                <mxCell id="83" value="" style="rounded=0;whiteSpace=wrap;html=1;fillColor=#cce5ff;strokeColor=#36393d;" parent="82" vertex="1">
                    <mxGeometry width="135.13971210838272" height="54.1747572815534" as="geometry"/>
                </mxCell>
                <mxCell id="84" value="Topic" style="rounded=1;whiteSpace=wrap;html=1;" parent="82" vertex="1">
                    <mxGeometry x="28.95850973751058" y="27.0873786407767" width="77.22269263336156" height="18.058252427184463" as="geometry"/>
                </mxCell>
                <mxCell id="85" value="&lt;font color=&quot;#000000&quot;&gt;visualize&lt;/font&gt;" style="text;html=1;align=center;verticalAlign=middle;resizable=0;points=[];autosize=1;strokeColor=none;" parent="82" vertex="1">
                    <mxGeometry x="37.64606265876375" y="9.932038834951456" width="63" height="18" as="geometry"/>
                </mxCell>
                <mxCell id="74" style="edgeStyle=orthogonalEdgeStyle;rounded=0;orthogonalLoop=1;jettySize=auto;html=1;" parent="113" source="77" target="83" edge="1">
                    <mxGeometry relative="1" as="geometry">
                        <Array as="points">
                            <mxPoint x="707.5529212531753" y="609.4660194174758"/>
                            <mxPoint x="707.5529212531753" y="609.4660194174758"/>
                        </Array>
                    </mxGeometry>
                </mxCell>
                <mxCell id="86" value="" style="group" parent="113" vertex="1" connectable="0">
                    <mxGeometry x="792.4978831498729" y="761.1553398058253" width="135.13971210838272" height="54.1747572815534" as="geometry"/>
                </mxCell>
                <mxCell id="87" value="" style="rounded=0;whiteSpace=wrap;html=1;fillColor=#cce5ff;strokeColor=#36393d;" parent="86" vertex="1">
                    <mxGeometry width="135.13971210838272" height="54.1747572815534" as="geometry"/>
                </mxCell>
                <mxCell id="88" value="Annexed" style="rounded=1;whiteSpace=wrap;html=1;" parent="86" vertex="1">
                    <mxGeometry x="28.95850973751058" y="27.0873786407767" width="77.22269263336156" height="18.058252427184463" as="geometry"/>
                </mxCell>
                <mxCell id="89" value="&lt;font color=&quot;#000000&quot;&gt;visualize&lt;/font&gt;" style="text;html=1;align=center;verticalAlign=middle;resizable=0;points=[];autosize=1;strokeColor=none;" parent="86" vertex="1">
                    <mxGeometry x="37.64606265876375" y="9.932038834951456" width="63" height="18" as="geometry"/>
                </mxCell>
                <mxCell id="76" style="edgeStyle=orthogonalEdgeStyle;rounded=0;orthogonalLoop=1;jettySize=auto;html=1;" parent="113" source="77" target="87" edge="1">
                    <mxGeometry relative="1" as="geometry">
                        <Array as="points">
                            <mxPoint x="690.1778154106689" y="788.242718446602"/>
                            <mxPoint x="690.1778154106689" y="788.242718446602"/>
                        </Array>
                    </mxGeometry>
                </mxCell>
                <mxCell id="90" value="" style="group" parent="113" vertex="1" connectable="0">
                    <mxGeometry x="792.4978831498729" y="671.7669902912621" width="135.13971210838272" height="54.1747572815534" as="geometry"/>
                </mxCell>
                <mxCell id="91" value="" style="rounded=0;whiteSpace=wrap;html=1;fillColor=#cce5ff;strokeColor=#36393d;" parent="90" vertex="1">
                    <mxGeometry width="135.13971210838272" height="54.1747572815534" as="geometry"/>
                </mxCell>
                <mxCell id="92" value="Topic" style="rounded=1;whiteSpace=wrap;html=1;" parent="90" vertex="1">
                    <mxGeometry x="28.95850973751058" y="27.0873786407767" width="77.22269263336156" height="18.058252427184463" as="geometry"/>
                </mxCell>
                <mxCell id="93" value="&lt;font color=&quot;#000000&quot;&gt;Selected Topic&lt;/font&gt;" style="text;html=1;align=center;verticalAlign=middle;resizable=0;points=[];autosize=1;strokeColor=none;" parent="90" vertex="1">
                    <mxGeometry x="24.132091447925486" y="9.932038834951456" width="90" height="18" as="geometry"/>
                </mxCell>
                <mxCell id="75" style="edgeStyle=orthogonalEdgeStyle;rounded=0;orthogonalLoop=1;jettySize=auto;html=1;entryX=0;entryY=0.5;entryDx=0;entryDy=0;" parent="113" source="77" target="91" edge="1">
                    <mxGeometry relative="1" as="geometry">
                        <Array as="points">
                            <mxPoint x="690.1778154106689" y="698.8543689320388"/>
                            <mxPoint x="690.1778154106689" y="698.8543689320388"/>
                        </Array>
                    </mxGeometry>
                </mxCell>
                <mxCell id="94" value="" style="group" parent="113" vertex="1" connectable="0">
                    <mxGeometry x="58.88230313293819" y="566.1262135922331" width="231.66807790008465" height="144.46601941747574" as="geometry"/>
                </mxCell>
                <mxCell id="95" value="" style="endArrow=none;dashed=1;html=1;dashPattern=1 3;strokeWidth=2;" parent="94" edge="1">
                    <mxGeometry width="50" height="50" relative="1" as="geometry">
                        <mxPoint y="144.46601941747574" as="sourcePoint"/>
                        <mxPoint x="231.66807790008465" as="targetPoint"/>
                        <Array as="points">
                            <mxPoint/>
                        </Array>
                    </mxGeometry>
                </mxCell>
                <mxCell id="96" value="" style="endArrow=none;dashed=1;html=1;dashPattern=1 3;strokeWidth=2;" parent="94" edge="1">
                    <mxGeometry width="50" height="50" relative="1" as="geometry">
                        <mxPoint y="144.46601941747574" as="sourcePoint"/>
                        <mxPoint x="231.66807790008465" as="targetPoint"/>
                        <Array as="points">
                            <mxPoint x="231.66807790008465" y="144.46601941747574"/>
                        </Array>
                    </mxGeometry>
                </mxCell>
                <mxCell id="97" value="" style="group" parent="113" vertex="1" connectable="0">
                    <mxGeometry x="741.3378492802709" y="460.4854368932039" width="348.467400508044" height="422.56310679611653" as="geometry"/>
                </mxCell>
                <mxCell id="98" value="" style="endArrow=none;dashed=1;html=1;" parent="97" edge="1">
                    <mxGeometry width="50" height="50" relative="1" as="geometry">
                        <mxPoint y="379.6747572815534" as="sourcePoint"/>
                        <mxPoint y="1.354368932038835" as="targetPoint"/>
                    </mxGeometry>
                </mxCell>
                <mxCell id="99" value="" style="endArrow=none;dashed=1;html=1;" parent="97" edge="1">
                    <mxGeometry width="50" height="50" relative="1" as="geometry">
                        <mxPoint x="348.467400508044" y="381.93203883495147" as="sourcePoint"/>
                        <mxPoint x="348.467400508044" as="targetPoint"/>
                    </mxGeometry>
                </mxCell>
                <mxCell id="100" value="" style="endArrow=none;dashed=1;html=1;" parent="97" edge="1">
                    <mxGeometry width="50" height="50" relative="1" as="geometry">
                        <mxPoint x="0.9652836579170194" y="383.73786407766994" as="sourcePoint"/>
                        <mxPoint x="348.467400508044" y="381.93203883495147" as="targetPoint"/>
                    </mxGeometry>
                </mxCell>
                <mxCell id="101" value="" style="endArrow=none;dashed=1;html=1;" parent="97" edge="1">
                    <mxGeometry width="50" height="50" relative="1" as="geometry">
                        <mxPoint x="0.9652836579170194" as="sourcePoint"/>
                        <mxPoint x="348.467400508044" as="targetPoint"/>
                    </mxGeometry>
                </mxCell>
                <mxCell id="102" value="Data Tier" style="text;html=1;align=center;verticalAlign=middle;resizable=0;points=[];autosize=1;strokeColor=none;" parent="97" vertex="1">
                    <mxGeometry x="174.71634208298053" y="406.3106796116505" width="63" height="18" as="geometry"/>
                </mxCell>
                <mxCell id="103" value="Database&lt;br&gt;" style="shape=datastore;whiteSpace=wrap;html=1;fillColor=#808080;strokeColor=#001DBC;fontColor=#ffffff;" parent="97" vertex="1">
                    <mxGeometry x="252.90431837425908" y="154.3980582524272" width="77.22269263336156" height="63.20388349514563" as="geometry"/>
                </mxCell>
                <mxCell id="104" value="" style="endArrow=classic;html=1;entryX=0;entryY=0.5;entryDx=0;entryDy=0;" parent="113" target="67" edge="1">
                    <mxGeometry width="50" height="50" relative="1" as="geometry">
                        <mxPoint x="290.55038103302263" y="647.3883495145632" as="sourcePoint"/>
                        <mxPoint x="356.1896697713802" y="639.2621359223301" as="targetPoint"/>
                    </mxGeometry>
                </mxCell>
                <mxCell id="105" value="" style="endArrow=none;html=1;exitX=1;exitY=0.5;exitDx=0;exitDy=0;entryX=0;entryY=0.3;entryDx=0;entryDy=0;" parent="113" source="79" target="103" edge="1">
                    <mxGeometry width="50" height="50" relative="1" as="geometry">
                        <mxPoint x="959.4919559695173" y="570.6407766990292" as="sourcePoint"/>
                        <mxPoint x="1007.7561388653683" y="525.495145631068" as="targetPoint"/>
                    </mxGeometry>
                </mxCell>
                <mxCell id="106" value="" style="endArrow=none;html=1;entryX=0;entryY=0.3;entryDx=0;entryDy=0;exitX=1;exitY=0.5;exitDx=0;exitDy=0;" parent="113" source="83" target="103" edge="1">
                    <mxGeometry width="50" height="50" relative="1" as="geometry">
                        <mxPoint x="959.4919559695173" y="749.4174757281554" as="sourcePoint"/>
                        <mxPoint x="1007.7561388653683" y="704.2718446601942" as="targetPoint"/>
                    </mxGeometry>
                </mxCell>
                <mxCell id="107" value="" style="endArrow=none;html=1;entryX=0;entryY=0.7;entryDx=0;entryDy=0;exitX=1;exitY=0.5;exitDx=0;exitDy=0;" parent="113" source="91" target="103" edge="1">
                    <mxGeometry width="50" height="50" relative="1" as="geometry">
                        <mxPoint x="959.4919559695173" y="814.4271844660194" as="sourcePoint"/>
                        <mxPoint x="1007.7561388653683" y="769.2815533980582" as="targetPoint"/>
                    </mxGeometry>
                </mxCell>
                <mxCell id="108" value="" style="endArrow=none;html=1;entryX=0;entryY=0.7;entryDx=0;entryDy=0;exitX=1;exitY=0.5;exitDx=0;exitDy=0;" parent="113" source="87" target="103" edge="1">
                    <mxGeometry width="50" height="50" relative="1" as="geometry">
                        <mxPoint x="959.4919559695173" y="798.1747572815534" as="sourcePoint"/>
                        <mxPoint x="1007.7561388653683" y="753.0291262135922" as="targetPoint"/>
                    </mxGeometry>
                </mxCell>
                <mxCell id="109" value="Infrastructure-Persistence layer" style="text;html=1;align=center;verticalAlign=middle;resizable=0;points=[];autosize=1;strokeColor=none;" parent="113" vertex="1">
                    <mxGeometry x="446.92633361558" y="866.7961165048544" width="180" height="18" as="geometry"/>
                </mxCell>
                <mxCell id="110" value="Domain model layer" style="text;html=1;align=center;verticalAlign=middle;resizable=0;points=[];autosize=1;strokeColor=none;" parent="113" vertex="1">
                    <mxGeometry x="118.24724809483487" y="866.7961165048544" width="117" height="18" as="geometry"/>
                </mxCell>
                <mxCell id="176" value="" style="group" parent="1" vertex="1" connectable="0">
                    <mxGeometry x="190" y="20" width="790" height="650" as="geometry"/>
                </mxCell>
                <mxCell id="115" value="&lt;font style=&quot;font-size: 11px&quot;&gt;Microserver Pattern&lt;/font&gt;" style="shape=umlFrame;whiteSpace=wrap;html=1;width=120;height=30;boundedLbl=1;verticalAlign=middle;align=left;spacingLeft=5;" parent="176" vertex="1">
                    <mxGeometry width="290" height="390" as="geometry"/>
                </mxCell>
                <mxCell id="2" value="&#10;&#10;&lt;span style=&quot;color: rgb(255, 255, 255); font-family: helvetica; font-size: 12px; font-style: normal; font-weight: 400; letter-spacing: normal; text-align: center; text-indent: 0px; text-transform: none; word-spacing: 0px; background-color: rgb(42, 42, 42); display: inline; float: none;&quot;&gt;User Interface&lt;/span&gt;&#10;&#10;" style="shape=umlFrame;whiteSpace=wrap;html=1;width=120;height=30;boundedLbl=1;verticalAlign=middle;align=left;spacingLeft=5;" parent="176" vertex="1">
                    <mxGeometry x="300" width="490" height="260" as="geometry"/>
                </mxCell>
                <mxCell id="3" value="server" style="shape=umlFrame;whiteSpace=wrap;html=1;width=120;height=30;boundedLbl=1;verticalAlign=middle;align=left;spacingLeft=5;" parent="176" vertex="1">
                    <mxGeometry x="300" y="260" width="490" height="210" as="geometry"/>
                </mxCell>
                <mxCell id="4" value="database" style="shape=umlFrame;whiteSpace=wrap;html=1;width=120;height=30;boundedLbl=1;verticalAlign=middle;align=left;spacingLeft=5;" parent="176" vertex="1">
                    <mxGeometry x="300" y="470" width="490" height="180" as="geometry"/>
                </mxCell>
                <mxCell id="5" value="" style="fontColor=#0066CC;verticalAlign=top;verticalLabelPosition=bottom;labelPosition=center;align=center;html=1;outlineConnect=0;fillColor=#CCCCCC;strokeColor=#6881B3;gradientColor=none;gradientDirection=north;strokeWidth=2;shape=mxgraph.networks.mobile;" parent="176" vertex="1">
                    <mxGeometry x="440" y="150" width="25" height="50" as="geometry"/>
                </mxCell>
                <mxCell id="6" value="" style="fontColor=#0066CC;verticalAlign=top;verticalLabelPosition=bottom;labelPosition=center;align=center;html=1;outlineConnect=0;fillColor=#CCCCCC;strokeColor=#6881B3;gradientColor=none;gradientDirection=north;strokeWidth=2;shape=mxgraph.networks.pc;" parent="176" vertex="1">
                    <mxGeometry x="530" y="150" width="60" height="50" as="geometry"/>
                </mxCell>
                <mxCell id="11" style="edgeStyle=orthogonalEdgeStyle;rounded=0;orthogonalLoop=1;jettySize=auto;html=1;strokeColor=#FF6666;" parent="176" source="8" target="6" edge="1">
                    <mxGeometry relative="1" as="geometry"/>
                </mxCell>
                <mxCell id="12" style="edgeStyle=orthogonalEdgeStyle;rounded=0;orthogonalLoop=1;jettySize=auto;html=1;entryX=0.5;entryY=0;entryDx=0;entryDy=0;entryPerimeter=0;strokeColor=#FF9999;" parent="176" source="8" target="5" edge="1">
                    <mxGeometry relative="1" as="geometry"/>
                </mxCell>
                <mxCell id="8" value="&lt;span style=&quot;color: rgb(255 , 255 , 255)&quot;&gt;User Interface&lt;/span&gt;" style="fontColor=#0066CC;verticalAlign=top;verticalLabelPosition=bottom;labelPosition=center;align=center;html=1;outlineConnect=0;fillColor=#CCCCCC;strokeColor=#6881B3;gradientColor=none;gradientDirection=north;strokeWidth=2;shape=mxgraph.networks.users;" parent="176" vertex="1">
                    <mxGeometry x="380" y="60" width="40" height="50" as="geometry"/>
                </mxCell>
                <mxCell id="16" value="&lt;span&gt;Settings&lt;/span&gt;" style="verticalLabelPosition=bottom;aspect=fixed;html=1;verticalAlign=top;strokeColor=none;align=center;outlineConnect=0;shape=mxgraph.citrix.role_storefront;fillColor=#CCCCCC;gradientColor=#000000;gradientDirection=south;" parent="176" vertex="1">
                    <mxGeometry x="660" y="156" width="38" height="38" as="geometry"/>
                </mxCell>
                <mxCell id="17" style="edgeStyle=orthogonalEdgeStyle;rounded=0;orthogonalLoop=1;jettySize=auto;html=1;strokeColor=#FF9999;" parent="176" source="6" target="16" edge="1">
                    <mxGeometry relative="1" as="geometry"/>
                </mxCell>
                <mxCell id="18" value="LAN" style="verticalLabelPosition=bottom;aspect=fixed;html=1;verticalAlign=top;strokeColor=none;align=center;outlineConnect=0;shape=mxgraph.citrix.cloud;" parent="176" vertex="1">
                    <mxGeometry x="500" y="260" width="65" height="42.42" as="geometry"/>
                </mxCell>
                <mxCell id="20" style="edgeStyle=orthogonalEdgeStyle;rounded=0;orthogonalLoop=1;jettySize=auto;html=1;strokeColor=#FF6666;" parent="176" source="5" target="18" edge="1">
                    <mxGeometry relative="1" as="geometry">
                        <Array as="points">
                            <mxPoint x="453" y="240"/>
                            <mxPoint x="533" y="240"/>
                        </Array>
                    </mxGeometry>
                </mxCell>
                <mxCell id="21" style="edgeStyle=orthogonalEdgeStyle;rounded=0;orthogonalLoop=1;jettySize=auto;html=1;strokeColor=#FF6666;" parent="176" source="6" target="18" edge="1">
                    <mxGeometry relative="1" as="geometry"/>
                </mxCell>
                <mxCell id="19" value="Load Balancer" style="fontColor=#0066CC;verticalAlign=top;verticalLabelPosition=bottom;labelPosition=center;align=center;html=1;outlineConnect=0;fillColor=#CCCCCC;strokeColor=#6881B3;gradientColor=none;gradientDirection=north;strokeWidth=2;shape=mxgraph.networks.load_balancer;" parent="176" vertex="1">
                    <mxGeometry x="380" y="388.5" width="92.5" height="30" as="geometry"/>
                </mxCell>
                <mxCell id="22" style="edgeStyle=orthogonalEdgeStyle;rounded=0;orthogonalLoop=1;jettySize=auto;html=1;entryX=0.5;entryY=0;entryDx=0;entryDy=0;entryPerimeter=0;strokeColor=#66B2FF;" parent="176" source="18" target="19" edge="1">
                    <mxGeometry relative="1" as="geometry">
                        <Array as="points">
                            <mxPoint x="533" y="290"/>
                            <mxPoint x="426" y="290"/>
                        </Array>
                    </mxGeometry>
                </mxCell>
                <mxCell id="25" value="Server Web" style="fontColor=#0066CC;verticalAlign=top;verticalLabelPosition=bottom;labelPosition=center;align=center;html=1;outlineConnect=0;fillColor=#CCCCCC;strokeColor=#6881B3;gradientColor=none;gradientDirection=north;strokeWidth=2;shape=mxgraph.networks.web_server;" parent="176" vertex="1">
                    <mxGeometry x="524" y="370" width="72" height="67" as="geometry"/>
                </mxCell>
                <mxCell id="26" style="edgeStyle=orthogonalEdgeStyle;rounded=0;orthogonalLoop=1;jettySize=auto;html=1;strokeColor=#66B2FF;" parent="176" source="19" target="25" edge="1">
                    <mxGeometry relative="1" as="geometry"/>
                </mxCell>
                <mxCell id="27" value="database of topics &lt;br&gt;and annexes" style="fontColor=#0066CC;verticalAlign=top;verticalLabelPosition=bottom;labelPosition=center;align=center;html=1;outlineConnect=0;fillColor=#CCCCCC;strokeColor=#6881B3;gradientColor=none;gradientDirection=north;strokeWidth=2;shape=mxgraph.networks.server_storage;" parent="176" vertex="1">
                    <mxGeometry x="472.5" y="525" width="60" height="42" as="geometry"/>
                </mxCell>
                <mxCell id="112" style="edgeStyle=orthogonalEdgeStyle;rounded=0;orthogonalLoop=1;jettySize=auto;html=1;exitX=0;exitY=0.93;exitDx=0;exitDy=0;exitPerimeter=0;strokeColor=#66B2FF;" parent="176" source="25" target="27" edge="1">
                    <mxGeometry relative="1" as="geometry"/>
                </mxCell>
                <mxCell id="28" value="user database" style="fontColor=#0066CC;verticalAlign=top;verticalLabelPosition=bottom;labelPosition=center;align=center;html=1;outlineConnect=0;fillColor=#CCCCCC;strokeColor=#6881B3;gradientColor=none;gradientDirection=north;strokeWidth=2;shape=mxgraph.networks.server_storage;" parent="176" vertex="1">
                    <mxGeometry x="600" y="525" width="60" height="42" as="geometry"/>
                </mxCell>
                <mxCell id="111" style="edgeStyle=orthogonalEdgeStyle;rounded=0;orthogonalLoop=1;jettySize=auto;html=1;exitX=0.88;exitY=0.5;exitDx=0;exitDy=0;exitPerimeter=0;strokeColor=#66B2FF;" parent="176" source="25" target="28" edge="1">
                    <mxGeometry relative="1" as="geometry"/>
                </mxCell>
                <mxCell id="120" value="Text" style="text;html=1;strokeColor=none;fillColor=none;align=center;verticalAlign=middle;whiteSpace=wrap;rounded=0;" parent="176" vertex="1">
                    <mxGeometry x="420" y="240" width="40" height="20" as="geometry"/>
                </mxCell>
                <mxCell id="145" value="" style="group" parent="176" vertex="1" connectable="0">
                    <mxGeometry x="63.25" y="156" width="203.5" height="95" as="geometry"/>
                </mxCell>
                <mxCell id="138" value="" style="rounded=1;whiteSpace=wrap;html=1;" parent="145" vertex="1">
                    <mxGeometry y="20" width="195" height="75" as="geometry"/>
                </mxCell>
                <mxCell id="130" value="" style="group" parent="145" vertex="1" connectable="0">
                    <mxGeometry x="90" y="37.5" width="90" height="40" as="geometry"/>
                </mxCell>
                <mxCell id="131" value="" style="rounded=0;whiteSpace=wrap;html=1;fillColor=#FFCC99;" parent="130" vertex="1">
                    <mxGeometry width="90" height="40" as="geometry"/>
                </mxCell>
                <mxCell id="132" value="" style="shape=hexagon;perimeter=hexagonPerimeter2;whiteSpace=wrap;html=1;fixedSize=1;fillColor=#FFCC99;" parent="130" vertex="1">
                    <mxGeometry x="15" width="60" height="40" as="geometry"/>
                </mxCell>
                <mxCell id="139" value="APS.NET" style="text;html=1;strokeColor=none;fillColor=none;align=center;verticalAlign=middle;whiteSpace=wrap;rounded=0;" parent="145" vertex="1">
                    <mxGeometry x="10" y="47.5" width="40" height="20" as="geometry"/>
                </mxCell>
                <mxCell id="140" value="" style="endArrow=classic;html=1;entryX=1;entryY=0.5;entryDx=0;entryDy=0;exitX=0;exitY=0.5;exitDx=0;exitDy=0;strokeColor=#FFFF99;" parent="145" source="131" target="139" edge="1">
                    <mxGeometry width="50" height="50" relative="1" as="geometry">
                        <mxPoint x="100" y="-60" as="sourcePoint"/>
                        <mxPoint x="60" y="-60" as="targetPoint"/>
                        <Array as="points"/>
                    </mxGeometry>
                </mxCell>
                <mxCell id="141" value="&lt;span&gt;&lt;font style=&quot;font-size: 10px&quot;&gt;WEB API&lt;/font&gt;&lt;/span&gt;" style="text;html=1;strokeColor=none;fillColor=none;align=center;verticalAlign=middle;whiteSpace=wrap;rounded=0;" parent="145" vertex="1">
                    <mxGeometry x="108" y="20" width="55" height="20" as="geometry"/>
                </mxCell>
                <mxCell id="142" value="&lt;span&gt;&lt;font style=&quot;font-size: 10px&quot;&gt;CONTEINER&lt;/font&gt;&lt;/span&gt;" style="text;html=1;strokeColor=none;fillColor=none;align=center;verticalAlign=middle;whiteSpace=wrap;rounded=0;" parent="145" vertex="1">
                    <mxGeometry x="115.5" y="75" width="40" height="20" as="geometry"/>
                </mxCell>
                <mxCell id="143" value="&lt;span style=&quot;font-size: 9px&quot;&gt;API GATEWAY MOVIL&lt;/span&gt;" style="text;html=1;strokeColor=none;fillColor=none;align=center;verticalAlign=middle;whiteSpace=wrap;rounded=0;" parent="145" vertex="1">
                    <mxGeometry x="67.5" width="136" height="20" as="geometry"/>
                </mxCell>
                <mxCell id="154" style="edgeStyle=orthogonalEdgeStyle;rounded=0;orthogonalLoop=1;jettySize=auto;html=1;entryX=1;entryY=0.5;entryDx=0;entryDy=0;strokeColor=#FFFF99;" parent="176" source="5" target="138" edge="1">
                    <mxGeometry relative="1" as="geometry"/>
                </mxCell>
                <mxCell id="155" style="edgeStyle=orthogonalEdgeStyle;rounded=0;orthogonalLoop=1;jettySize=auto;html=1;entryX=1;entryY=0.75;entryDx=0;entryDy=0;strokeColor=#FFFF66;" parent="176" source="6" target="138" edge="1">
                    <mxGeometry relative="1" as="geometry">
                        <Array as="points">
                            <mxPoint x="560" y="214"/>
                            <mxPoint x="398" y="214"/>
                            <mxPoint x="398" y="232"/>
                        </Array>
                    </mxGeometry>
                </mxCell>
                <mxCell id="146" value="" style="group" parent="176" vertex="1" connectable="0">
                    <mxGeometry x="61" y="40" width="208" height="100" as="geometry"/>
                </mxCell>
                <mxCell id="133" value="" style="rounded=1;whiteSpace=wrap;html=1;" parent="146" vertex="1">
                    <mxGeometry y="20" width="195" height="80" as="geometry"/>
                </mxCell>
                <mxCell id="127" value="" style="group" parent="146" vertex="1" connectable="0">
                    <mxGeometry x="90" y="40" width="90" height="40" as="geometry"/>
                </mxCell>
                <mxCell id="128" value="" style="rounded=0;whiteSpace=wrap;html=1;fillColor=#66FFFF;" parent="127" vertex="1">
                    <mxGeometry width="90" height="40" as="geometry"/>
                </mxCell>
                <mxCell id="129" value="" style="shape=hexagon;perimeter=hexagonPerimeter2;whiteSpace=wrap;html=1;fixedSize=1;fillColor=#66FFFF;" parent="127" vertex="1">
                    <mxGeometry x="15" width="60" height="40" as="geometry"/>
                </mxCell>
                <mxCell id="134" value="&lt;span&gt;&lt;font style=&quot;font-size: 10px&quot;&gt;CONTEINER&lt;/font&gt;&lt;/span&gt;" style="text;html=1;strokeColor=none;fillColor=none;align=center;verticalAlign=middle;whiteSpace=wrap;rounded=0;" parent="146" vertex="1">
                    <mxGeometry x="115" y="80" width="40" height="20" as="geometry"/>
                </mxCell>
                <mxCell id="135" value="&lt;span&gt;&lt;font style=&quot;font-size: 10px&quot;&gt;WEB API&lt;/font&gt;&lt;/span&gt;" style="text;html=1;strokeColor=none;fillColor=none;align=center;verticalAlign=middle;whiteSpace=wrap;rounded=0;" parent="146" vertex="1">
                    <mxGeometry x="108" y="20" width="55" height="20" as="geometry"/>
                </mxCell>
                <mxCell id="136" value="APS.NET" style="text;html=1;strokeColor=none;fillColor=none;align=center;verticalAlign=middle;whiteSpace=wrap;rounded=0;" parent="146" vertex="1">
                    <mxGeometry x="10" y="50" width="40" height="20" as="geometry"/>
                </mxCell>
                <mxCell id="137" value="" style="endArrow=classic;html=1;entryX=1;entryY=0.5;entryDx=0;entryDy=0;exitX=0;exitY=0.5;exitDx=0;exitDy=0;strokeColor=#FFFF99;" parent="146" source="128" target="136" edge="1">
                    <mxGeometry width="50" height="50" relative="1" as="geometry">
                        <mxPoint x="30" y="100" as="sourcePoint"/>
                        <mxPoint x="80" y="50" as="targetPoint"/>
                    </mxGeometry>
                </mxCell>
                <mxCell id="144" value="&lt;span&gt;&lt;font style=&quot;font-size: 9px&quot;&gt;API GATEWAY WEB&lt;/font&gt;&lt;/span&gt;" style="text;html=1;strokeColor=none;fillColor=none;align=center;verticalAlign=middle;whiteSpace=wrap;rounded=0;" parent="146" vertex="1">
                    <mxGeometry x="90" width="118" height="20" as="geometry"/>
                </mxCell>
                <mxCell id="152" style="edgeStyle=orthogonalEdgeStyle;rounded=0;orthogonalLoop=1;jettySize=auto;html=1;entryX=1;entryY=0.5;entryDx=0;entryDy=0;strokeColor=#FFFF66;" parent="176" source="5" target="133" edge="1">
                    <mxGeometry relative="1" as="geometry"/>
                </mxCell>
                <mxCell id="153" style="edgeStyle=orthogonalEdgeStyle;rounded=0;orthogonalLoop=1;jettySize=auto;html=1;exitX=0;exitY=0.5;exitDx=0;exitDy=0;exitPerimeter=0;entryX=1;entryY=0.75;entryDx=0;entryDy=0;strokeColor=#FFFF99;" parent="176" source="6" target="133" edge="1">
                    <mxGeometry relative="1" as="geometry">
                        <Array as="points">
                            <mxPoint x="490" y="175"/>
                            <mxPoint x="490" y="220"/>
                            <mxPoint x="330" y="220"/>
                            <mxPoint x="330" y="120"/>
                        </Array>
                    </mxGeometry>
                </mxCell>
                <mxCell id="147" value="" style="group" parent="176" vertex="1" connectable="0">
                    <mxGeometry x="63.25" y="260" width="190" height="110" as="geometry"/>
                </mxCell>
                <mxCell id="119" value="" style="rounded=1;whiteSpace=wrap;html=1;" parent="147" vertex="1">
                    <mxGeometry y="20" width="190" height="90" as="geometry"/>
                </mxCell>
                <mxCell id="116" value="" style="group" parent="147" vertex="1" connectable="0">
                    <mxGeometry x="90" y="40" width="90" height="40" as="geometry"/>
                </mxCell>
                <mxCell id="117" value="" style="rounded=0;whiteSpace=wrap;html=1;fillColor=#99FFCC;" parent="116" vertex="1">
                    <mxGeometry width="90" height="40" as="geometry"/>
                </mxCell>
                <mxCell id="118" value="" style="shape=hexagon;perimeter=hexagonPerimeter2;whiteSpace=wrap;html=1;fixedSize=1;fillColor=#99FFCC;" parent="116" vertex="1">
                    <mxGeometry x="15" y="-0.5" width="60" height="40" as="geometry"/>
                </mxCell>
                <mxCell id="121" value="&lt;span&gt;&lt;font style=&quot;font-size: 10px&quot;&gt;WEB API&lt;/font&gt;&lt;/span&gt;" style="text;html=1;strokeColor=none;fillColor=none;align=center;verticalAlign=middle;whiteSpace=wrap;rounded=0;" parent="147" vertex="1">
                    <mxGeometry x="107.5" y="20" width="55" height="20" as="geometry"/>
                </mxCell>
                <mxCell id="122" value="&lt;span&gt;&lt;font style=&quot;font-size: 10px&quot;&gt;CONTEINER&lt;/font&gt;&lt;/span&gt;" style="text;html=1;strokeColor=none;fillColor=none;align=center;verticalAlign=middle;whiteSpace=wrap;rounded=0;" parent="147" vertex="1">
                    <mxGeometry x="115" y="80" width="40" height="20" as="geometry"/>
                </mxCell>
                <mxCell id="124" value="&lt;span&gt;&lt;font style=&quot;font-size: 9px&quot;&gt;MICROSERVICE&lt;/font&gt;&lt;/span&gt;" style="text;html=1;strokeColor=none;fillColor=none;align=center;verticalAlign=middle;whiteSpace=wrap;rounded=0;" parent="147" vertex="1">
                    <mxGeometry x="123" width="40" height="20" as="geometry"/>
                </mxCell>
                <mxCell id="156" style="edgeStyle=orthogonalEdgeStyle;rounded=0;orthogonalLoop=1;jettySize=auto;html=1;entryX=1;entryY=0.5;entryDx=0;entryDy=0;strokeColor=#FFFF99;" parent="176" source="5" target="119" edge="1">
                    <mxGeometry relative="1" as="geometry">
                        <Array as="points">
                            <mxPoint x="370" y="175"/>
                            <mxPoint x="370" y="325"/>
                        </Array>
                    </mxGeometry>
                </mxCell>
                <mxCell id="157" style="edgeStyle=orthogonalEdgeStyle;rounded=0;orthogonalLoop=1;jettySize=auto;html=1;entryX=1;entryY=0.328;entryDx=0;entryDy=0;entryPerimeter=0;strokeColor=#FFFF99;" parent="176" source="6" target="119" edge="1">
                    <mxGeometry relative="1" as="geometry">
                        <Array as="points">
                            <mxPoint x="560" y="210"/>
                            <mxPoint x="392" y="210"/>
                            <mxPoint x="392" y="310"/>
                        </Array>
                    </mxGeometry>
                </mxCell>
                <mxCell id="150" style="edgeStyle=orthogonalEdgeStyle;rounded=0;orthogonalLoop=1;jettySize=auto;html=1;exitX=0;exitY=0.5;exitDx=0;exitDy=0;entryX=0;entryY=0.5;entryDx=0;entryDy=0;entryPerimeter=0;strokeColor=#FFFF99;" parent="176" source="117" target="27" edge="1">
                    <mxGeometry relative="1" as="geometry">
                        <Array as="points">
                            <mxPoint x="140" y="320"/>
                            <mxPoint x="140" y="360"/>
                            <mxPoint x="280" y="360"/>
                            <mxPoint x="280" y="546"/>
                        </Array>
                    </mxGeometry>
                </mxCell>
                <mxCell id="158" value="&lt;font style=&quot;font-size: 11px&quot;&gt;Event&lt;/font&gt;-&lt;font style=&quot;font-size: 11px&quot;&gt;Driven&lt;/font&gt; &lt;font style=&quot;font-size: 11px&quot;&gt;Pattern&lt;/font&gt;" style="shape=umlFrame;whiteSpace=wrap;html=1;width=120;height=30;boundedLbl=1;verticalAlign=middle;align=left;spacingLeft=5;" parent="176" vertex="1">
                    <mxGeometry y="390.64" width="290" height="259.36" as="geometry"/>
                </mxCell>
                <mxCell id="160" value="" style="verticalLabelPosition=bottom;aspect=fixed;html=1;verticalAlign=top;strokeColor=none;align=center;outlineConnect=0;shape=mxgraph.citrix.worxmail;fillColor=#112356;gradientColor=#63AFC6;gradientDirection=south;" parent="176" vertex="1">
                    <mxGeometry x="80" y="436.75" width="33.25" height="33.25" as="geometry"/>
                </mxCell>
                <mxCell id="161" style="edgeStyle=orthogonalEdgeStyle;rounded=0;orthogonalLoop=1;jettySize=auto;html=1;strokeColor=#99FF99;" parent="176" source="163" target="160" edge="1">
                    <mxGeometry relative="1" as="geometry"/>
                </mxCell>
                <mxCell id="163" value="event processes" style="verticalLabelPosition=bottom;aspect=fixed;html=1;verticalAlign=top;strokeColor=none;align=center;outlineConnect=0;shape=mxgraph.citrix.process;" parent="176" vertex="1">
                    <mxGeometry x="170" y="466.61" width="23.54" height="28.06" as="geometry"/>
                </mxCell>
                <mxCell id="164" style="edgeStyle=orthogonalEdgeStyle;rounded=0;orthogonalLoop=1;jettySize=auto;html=1;strokeColor=#99FF99;" parent="176" source="165" target="163" edge="1">
                    <mxGeometry relative="1" as="geometry"/>
                </mxCell>
                <mxCell id="165" value="events" style="verticalLabelPosition=bottom;aspect=fixed;html=1;verticalAlign=top;strokeColor=none;align=center;outlineConnect=0;shape=mxgraph.citrix.role_storefront;fillColor=#CCCCCC;gradientColor=#000000;gradientDirection=south;" parent="176" vertex="1">
                    <mxGeometry x="213.25" y="407" width="30" height="30" as="geometry"/>
                </mxCell>
                <mxCell id="175" style="edgeStyle=orthogonalEdgeStyle;rounded=0;orthogonalLoop=1;jettySize=auto;html=1;strokeColor=#99FF99;" parent="176" source="5" target="165" edge="1">
                    <mxGeometry relative="1" as="geometry">
                        <Array as="points">
                            <mxPoint x="453" y="370"/>
                            <mxPoint x="270" y="370"/>
                            <mxPoint x="270" y="422"/>
                        </Array>
                    </mxGeometry>
                </mxCell>
                <mxCell id="174" style="edgeStyle=orthogonalEdgeStyle;rounded=0;orthogonalLoop=1;jettySize=auto;html=1;strokeColor=#99FF99;" parent="176" source="6" target="165" edge="1">
                    <mxGeometry relative="1" as="geometry">
                        <Array as="points">
                            <mxPoint x="470" y="175"/>
                            <mxPoint x="470" y="350"/>
                            <mxPoint x="260" y="350"/>
                            <mxPoint x="260" y="410"/>
                        </Array>
                    </mxGeometry>
                </mxCell>
                <mxCell id="173" style="edgeStyle=orthogonalEdgeStyle;rounded=0;orthogonalLoop=1;jettySize=auto;html=1;strokeColor=#99FF99;" parent="176" source="27" target="165" edge="1">
                    <mxGeometry relative="1" as="geometry">
                        <Array as="points">
                            <mxPoint x="503" y="610"/>
                            <mxPoint x="228" y="610"/>
                        </Array>
                    </mxGeometry>
                </mxCell>
                <mxCell id="167" value="" style="verticalLabelPosition=bottom;aspect=fixed;html=1;verticalAlign=top;strokeColor=#2D7600;align=center;outlineConnect=0;shape=mxgraph.citrix.worxmail;fillColor=#60a917;gradientDirection=south;fontColor=#ffffff;" parent="176" vertex="1">
                    <mxGeometry x="83.25" y="520" width="30" height="30" as="geometry"/>
                </mxCell>
                <mxCell id="162" style="edgeStyle=orthogonalEdgeStyle;rounded=0;orthogonalLoop=1;jettySize=auto;html=1;strokeColor=#99FF99;" parent="176" source="163" target="167" edge="1">
                    <mxGeometry relative="1" as="geometry">
                        <Array as="points">
                            <mxPoint x="145" y="540"/>
                        </Array>
                    </mxGeometry>
                </mxCell>
                <mxCell id="168" value="&lt;font style=&quot;font-size: 12px&quot;&gt;users&lt;/font&gt;" style="fontColor=#0066CC;verticalAlign=top;verticalLabelPosition=bottom;labelPosition=center;align=center;html=1;outlineConnect=0;fillColor=#CCCCCC;strokeColor=#6881B3;gradientColor=none;gradientDirection=north;strokeWidth=2;shape=mxgraph.networks.users;" parent="176" vertex="1">
                    <mxGeometry x="10" y="430" width="30" height="30" as="geometry"/>
                </mxCell>
                <mxCell id="170" style="edgeStyle=orthogonalEdgeStyle;rounded=0;orthogonalLoop=1;jettySize=auto;html=1;entryX=1;entryY=0.5;entryDx=0;entryDy=0;entryPerimeter=0;strokeColor=#99FF99;" parent="176" source="160" target="168" edge="1">
                    <mxGeometry relative="1" as="geometry">
                        <Array as="points">
                            <mxPoint x="87" y="444"/>
                            <mxPoint x="68" y="444"/>
                            <mxPoint x="68" y="435"/>
                        </Array>
                    </mxGeometry>
                </mxCell>
                <mxCell id="169" value="&lt;font style=&quot;font-size: 10px&quot;&gt;administrator&lt;/font&gt;" style="fontColor=#0066CC;verticalAlign=top;verticalLabelPosition=bottom;labelPosition=center;align=center;html=1;outlineConnect=0;fillColor=#CCCCCC;strokeColor=#6881B3;gradientColor=none;gradientDirection=north;strokeWidth=2;shape=mxgraph.networks.user_male;" parent="176" vertex="1">
                    <mxGeometry x="25" y="497.27" width="15" height="30" as="geometry"/>
                </mxCell>
                <mxCell id="172" style="edgeStyle=orthogonalEdgeStyle;rounded=0;orthogonalLoop=1;jettySize=auto;html=1;entryX=1;entryY=0.5;entryDx=0;entryDy=0;entryPerimeter=0;strokeColor=#99FF99;" parent="176" source="167" target="169" edge="1">
                    <mxGeometry relative="1" as="geometry"/>
                </mxCell>
            </root>
        </mxGraphModel>
    </diagram>
</mxfile>